<svg width="151" height="51" viewBox="0 0 151 51" fill="none" xmlns="http://www.w3.org/2000/svg">
<path fill-rule="evenodd" clip-rule="evenodd" d="M130.79 45.9214C130.79 48.6049 129.664 50.7802 128.274 50.7802C126.884 50.7802 125.758 48.6049 125.758 45.9214V23.0421C125.758 20.3582 126.884 18.1829 128.274 18.1829C129.664 18.1829 130.79 20.3582 130.79 23.0421V45.9214ZM131.523 6.49481C131.523 9.9607 130.068 12.7694 128.274 12.7694C126.48 12.7694 125.025 9.9607 125.025 6.49481C125.025 3.02893 126.48 0.220215 128.274 0.220215C130.068 0.220215 131.523 3.02893 131.523 6.49481ZM138.607 22.8079V23.6038C139.214 21.7035 140.073 20.2378 141.183 19.2058C142.292 18.1754 143.569 17.6594 145.014 17.6594C146.082 17.6594 146.945 18.0334 147.605 18.7814C148.264 19.5307 148.772 20.5009 149.128 21.6933C149.484 22.8869 149.719 24.191 149.835 25.6056C149.949 27.0214 150.007 28.3955 150.007 29.7299V50.6815H144.982V32.2161C144.982 30.1149 144.778 28.5874 144.37 27.6376C143.962 26.6871 143.423 26.2116 142.753 26.2116C142.397 26.2116 142.036 26.3536 141.669 26.6359C141.303 26.9195 140.957 27.314 140.633 27.8193C140.308 28.3251 140.01 28.9213 139.738 29.6079C139.466 30.297 139.256 31.0438 139.11 31.8532V50.6815H134.085V22.6864V22.5763C134.1 20.2386 135.064 18.3477 136.268 18.2658H136.428C137.611 18.3461 138.56 20.1739 138.607 22.4544V22.8079V22.8079ZM47.2761 27.8794C46.92 25.8371 46.4284 24.0686 45.8002 22.5713C45.1723 21.0765 44.4233 19.8931 43.5551 19.0232C42.6858 18.1549 41.7281 17.7195 40.6815 17.7195C39.4253 17.7195 38.3418 18.2347 37.431 19.2658C36.5202 20.297 35.7926 21.7231 35.2481 23.5415V5.10809H35.2452C35.2452 5.09418 35.2464 5.0815 35.2464 5.06758C35.2464 2.39063 34.1227 0.220255 32.7369 0.220255C31.3506 0.220255 30.2271 2.39063 30.2271 5.06758C30.2271 5.0815 30.2281 5.09418 30.2281 5.10809H30.2237V50.7411H30.3667V50.7465H35.2185V46.5796C35.67 47.6488 36.2073 48.5348 36.8344 49.2296C37.7656 50.2599 38.8599 50.7759 40.1162 50.7759C41.2046 50.7759 42.2203 50.3602 43.1623 49.532C44.1045 48.7033 44.921 47.5515 45.6119 46.0751C46.3026 44.5995 46.8414 42.86 47.2293 40.8591C47.6164 38.8573 47.8102 36.7037 47.8102 34.3991C47.8102 32.0937 47.6323 29.9213 47.2761 27.8794V27.8794ZM42.3773 37.6436C42.1887 38.6351 41.922 39.4936 41.5764 40.222C41.2309 40.9495 40.8118 41.5257 40.3201 41.9508C39.8283 42.3751 39.2889 42.5875 38.7026 42.5875C38.012 42.5875 37.3524 42.1935 36.7246 41.4049C36.0962 40.616 35.6043 39.5349 35.2481 38.1596V31.4877C35.6043 29.9115 36.1119 28.5971 36.7713 27.5451C37.431 26.4947 38.1581 25.9689 38.9541 25.9689C39.4982 25.9689 39.9953 26.1911 40.4457 26.6354C40.8959 27.0807 41.2885 27.6871 41.6235 28.4551C41.958 29.2236 42.2148 30.123 42.3928 31.1538C42.5707 32.1854 42.6599 33.2673 42.6599 34.3991C42.6599 35.5727 42.5656 36.6534 42.3773 37.6436V37.6436ZM73.9386 22.8678V23.6633C74.5456 21.7634 75.4039 20.2973 76.5141 19.2657C77.6232 18.2349 78.9006 17.7193 80.3451 17.7193C81.4129 17.7193 82.2765 18.0933 82.936 18.8413C83.5954 19.5902 84.1028 20.5604 84.4589 21.7528C84.8153 22.9464 85.0505 24.2505 85.1659 25.6651C85.2806 27.0809 85.3382 28.455 85.3382 29.7894V50.741H80.3135V32.2756C80.3135 30.1748 80.1097 28.6473 79.7014 27.6971C79.2929 26.747 78.7539 26.2711 78.084 26.2711C77.7279 26.2711 77.3666 26.4131 77.0007 26.6958C76.6338 26.9794 76.2884 27.3735 75.9643 27.8792C75.6393 28.3846 75.3412 28.9808 75.0693 29.6678C74.7967 30.3565 74.5871 31.1037 74.4411 31.9131V50.741H69.4163V22.7463V22.6358C69.4315 20.2985 70.3953 18.4072 71.5996 18.3258H71.7595C72.942 18.406 73.8911 20.2338 73.9386 22.5139V22.8678V22.8678ZM25.6703 22.6631C24.9165 21.1466 23.9951 19.9436 22.9069 19.0532C21.8177 18.1644 20.5719 17.7192 19.1695 17.7192C17.7668 17.7192 16.5157 18.1644 15.4167 19.0532C14.3175 19.9436 13.3912 21.1569 12.6374 22.6934C11.8836 24.2303 11.3075 26.0193 10.9101 28.0612C10.5122 30.1031 10.3134 32.2759 10.3134 34.5813C10.3134 36.4407 10.4634 38.2309 10.763 39.9524C10.5179 40.6485 10.1891 41.2365 9.76787 41.7075C9.24434 42.2951 8.6687 42.5876 8.0405 42.5876C7.53816 42.5876 7.06167 42.3855 6.61145 41.9812C6.16123 41.5769 5.76864 41.0098 5.4341 40.283C5.28452 39.959 5.03197 39.2756 5.03197 36.7361V5.0898C5.03261 2.39034 3.90885 0.220379 2.52281 0.220379C1.14015 0.220379 0.0189452 2.38093 0.0136484 5.04847L0.00708008 39.3574C0.00708008 42.2251 0.906675 44.4847 1.55542 45.7716C2.31963 47.2877 3.25143 48.5013 4.35039 49.4114C4.71395 49.7121 5.09468 49.9585 5.48918 50.1602C6.28729 50.5678 7.14727 50.776 8.07207 50.776C9.97677 50.776 11.5942 49.9875 12.9241 48.4097C13.1677 48.1208 13.3953 47.8114 13.6148 47.4927C14.1646 48.2673 14.7707 48.9363 15.4481 49.4715C16.5472 50.3403 17.7877 50.776 19.1695 50.776C21.0745 50.776 22.7075 49.9875 24.0688 48.4097C25.4296 46.8334 26.4343 44.7916 27.0835 42.284L22.8126 39.9794C22.6751 40.6791 22.4577 41.2921 22.1605 41.8183C21.9592 42.1752 21.7209 42.4919 21.4463 42.7693C20.7655 43.4572 20.0594 43.8001 19.3265 43.8001C18.4049 43.8001 17.5837 43.2452 16.8614 42.133C16.1392 41.0212 15.7356 39.393 15.6521 37.2497H27.8373C27.8788 36.8466 27.9104 36.3699 27.9316 35.8249C27.9519 35.279 27.9627 34.7233 27.9627 34.157C27.9627 31.9731 27.7691 29.8907 27.3818 27.9094C26.9945 25.9289 26.4239 24.1792 25.6703 22.6631V22.6631ZM15.5578 31.2452C15.6625 29.2646 16.0341 27.677 16.6729 26.4833C17.311 25.291 18.1225 24.6948 19.1066 24.6948C20.0698 24.6948 20.8755 25.2811 21.5247 26.4535C22.1736 27.6266 22.5505 29.2237 22.6554 31.2452H15.5578ZM122.458 27.9997C122.06 25.9991 121.485 24.2392 120.731 22.7231C119.978 21.2071 119.056 19.9934 117.968 19.0837C116.879 18.1749 115.633 17.7195 114.23 17.7195C112.827 17.7195 111.577 18.1749 110.478 19.0837C109.378 19.9934 108.452 21.2071 107.698 22.7231C106.945 24.2392 106.374 25.9991 105.987 27.9997C105.599 30.0015 105.406 32.0937 105.406 34.2776C105.406 36.4615 105.599 38.5537 105.987 40.5554C106.374 42.5576 106.945 44.316 107.698 45.832C108.452 47.3493 109.378 48.5528 110.478 49.4415C111.577 50.3303 112.827 50.7759 114.23 50.7759C115.633 50.7759 116.884 50.3303 117.983 49.4415C119.082 48.5528 120.009 47.3493 120.763 45.832C121.516 44.316 122.086 42.5576 122.474 40.5554C122.861 38.5537 123.055 36.4615 123.055 34.2776C123.055 32.0937 122.856 30.0015 122.458 27.9997ZM117.591 37.6436C117.402 38.6752 117.146 39.5554 116.821 40.2829C116.496 41.0101 116.115 41.5768 115.675 41.9815C115.235 42.3854 114.753 42.5875 114.23 42.5875C113.163 42.5875 112.283 41.8293 111.592 40.3132C110.902 38.7971 110.556 36.7851 110.556 34.2776C110.556 33.0651 110.65 31.9431 110.839 30.9115C111.027 29.8808 111.283 29.0014 111.608 28.2735C111.933 27.5451 112.32 26.9792 112.77 26.5749C113.22 26.171 113.707 25.9689 114.23 25.9689C115.277 25.9689 116.146 26.7267 116.837 28.2432C117.528 29.7592 117.873 31.7708 117.873 34.2776C117.873 35.4913 117.779 36.6133 117.591 37.6436V37.6436ZM64.6745 22.7231C63.9206 21.2071 62.999 19.9934 61.9106 19.0837C60.8218 18.1749 59.5758 17.7195 58.1735 17.7195C56.7707 17.7195 55.52 18.1749 54.4204 19.0837C53.3217 19.9934 52.395 21.2071 51.6416 22.7231C50.8875 24.2392 50.3168 25.9991 49.9297 27.9997C49.5422 30.0015 49.3487 32.0937 49.3487 34.2776C49.3487 36.4615 49.5422 38.5537 49.9297 40.5554C50.3168 42.5576 50.8875 44.316 51.6416 45.832C52.395 47.3493 53.3217 48.5528 54.4204 49.4415C55.52 50.3303 56.7707 50.7759 58.1735 50.7759C59.5758 50.7759 60.8274 50.3303 61.9263 49.4415C63.0257 48.5528 63.9518 47.3493 64.7056 45.832C65.4594 44.316 66.0298 42.5576 66.4173 40.5554C66.8046 38.5537 66.9982 36.4615 66.9982 34.2776C66.9982 32.0937 66.7991 30.0015 66.4018 27.9997C66.0037 25.9991 65.4283 24.2392 64.6745 22.7231V22.7231ZM61.5337 37.6436C61.3454 38.6752 61.0886 39.5554 60.7644 40.2829C60.4394 41.0101 60.0578 41.5768 59.618 41.9815C59.1786 42.3854 58.6966 42.5875 58.1735 42.5875C57.1057 42.5875 56.2264 41.8293 55.5357 40.3132C54.8448 38.7971 54.499 36.7851 54.499 34.2776C54.499 33.0651 54.5933 31.9431 54.7819 30.9115C54.9702 29.8808 55.2264 29.0014 55.5512 28.2735C55.8756 27.5451 56.2629 26.9792 56.7133 26.5749C57.1633 26.171 57.65 25.9689 58.1735 25.9689C59.2203 25.9689 60.0892 26.7267 60.7801 28.2432C61.471 29.7592 61.8166 31.7708 61.8166 34.2776C61.8166 35.4913 61.7223 36.6133 61.5337 37.6436V37.6436ZM98.214 41.7076C97.6905 42.2952 97.1148 42.5874 96.4867 42.5874C95.9843 42.5874 95.5078 42.3852 95.0578 41.9814C94.6074 41.5771 94.2148 41.0099 93.8802 40.2828C93.5449 39.5553 93.2836 38.6755 93.0951 37.6435C92.9067 36.6135 92.8124 35.4711 92.8124 34.2173C92.8124 31.7106 93.1626 29.7092 93.8646 28.2128C94.5656 26.7168 95.4394 25.9687 96.4867 25.9687C97.7428 25.9687 98.6954 26.9795 99.3443 29.0013L104.244 26.1508C103.594 23.6433 102.621 21.6116 101.323 20.0551C100.025 18.4985 98.4229 17.7194 96.5182 17.7194C95.1152 17.7194 93.8646 18.1646 92.7652 19.0533C91.6662 19.9433 90.7399 21.1468 89.9859 22.6633C89.2321 24.1793 88.6562 25.9376 88.2587 27.9398C87.8606 29.9412 87.6621 32.0334 87.6621 34.2173C87.6621 36.4012 87.8606 38.4934 88.2587 40.4952C88.6562 42.4961 89.2371 44.2557 90.0016 45.7717C90.7658 47.2878 91.6976 48.5011 92.7965 49.4111C93.8957 50.3216 95.1364 50.7758 96.5182 50.7758C98.4229 50.7758 100.04 49.9873 101.37 48.4098C102.699 46.8332 103.668 44.8114 104.275 42.3456L99.3757 39.4333C99.1248 40.3646 98.7371 41.1225 98.214 41.7076V41.7076Z" fill="#F56B2A"/>
</svg>
